<svg width="105" height="61" viewBox="0 0 105 61" fill="none" xmlns="http://www.w3.org/2000/svg">
<path d="M52.5 8.5C23.5051 8.5 0 32.0051 0 61H105C105 32.0051 81.4949 8.5 52.5 8.5Z" fill="#FDC98D"/>
<path d="M33.5 21C33.5 32.0457 42.4543 41 53.5 41C64.5457 41 73.5 32.0457 73.5 21C73.5 9.95431 64.5457 1 53.5 1C42.4543 1 33.5 9.95431 33.5 21Z" stroke="#0E1B2C" stroke-width="2"/>
<path d="M42.0714 21C42.0714 27.3118 47.1882 32.4286 53.5 32.4286C59.8118 32.4286 64.9286 27.3118 64.9286 21C64.9286 14.6882 59.8118 9.57143 53.5 9.57143C47.1882 9.57143 42.0714 14.6882 42.0714 21Z" stroke="#0E1B2C" stroke-width="2"/>
<path d="M50.6429 21C50.6429 22.578 51.922 23.8571 53.5 23.8571C55.078 23.8571 56.3571 22.578 56.3571 21C56.3571 19.422 55.078 18.1429 53.5 18.1429C51.922 18.1429 50.6429 19.422 50.6429 21Z" stroke="#0E1B2C" stroke-width="2"/>
</svg>
