<svg width="700" height="109" viewBox="0 0 700 109" fill="none" xmlns="http://www.w3.org/2000/svg">
<path d="M270 86H430V109H270V86Z" fill="#805EFF"/>
<path d="M115.078 12.6V42H120.286V28.476L133.264 42H140.53L125.704 26.712L139.438 12.6H132.34L120.286 25.41V12.6H115.078ZM156.54 37.632C151.206 37.632 146.88 33.768 146.88 27.3C146.88 21.168 150.828 16.884 156.456 16.884C159.9 16.884 162.84 18.522 164.562 21.42L168.72 18.354C166.074 14.154 161.916 11.928 156.708 11.928C147.678 11.928 141.63 18.774 141.63 27.636C141.63 36.078 147.09 42.672 156.12 42.672C162.462 42.672 167.166 39.354 169.602 33.474L165.066 31.5C163.554 35.364 160.53 37.632 156.54 37.632ZM196.734 11.928C188.124 11.928 181.74 18.522 181.74 27.3C181.74 36.078 188.124 42.672 196.734 42.672C205.344 42.672 211.728 36.078 211.728 27.3C211.728 18.522 205.344 11.928 196.734 11.928ZM187.032 27.3C187.032 21.294 191.106 16.884 196.734 16.884C202.404 16.884 206.436 21.294 206.436 27.3C206.436 33.306 202.404 37.716 196.734 37.716C191.106 37.716 187.032 33.306 187.032 27.3ZM230.694 20.664L225.36 35.196L219.984 20.664H214.482L223.092 42H227.544L236.196 20.664H230.694ZM258.002 32.928V30.744C258.002 23.814 254.348 20.16 248.552 20.16C241.79 20.16 237.716 25.158 237.716 31.458C237.716 37.842 241.916 42.252 248.468 42.252C252.248 42.252 255.146 40.782 257.414 38.136L254.726 35.07C253.424 36.708 251.534 37.842 248.888 37.842C245.57 37.842 243.428 36.204 242.84 32.928H258.002ZM242.798 29.19C243.302 26.166 245.192 24.402 248.3 24.402C251.45 24.402 252.92 26.208 252.962 29.19H242.798ZM262.437 20.664V42H267.519V30.828C267.519 27.006 269.703 25.074 272.685 25.074C273.483 25.074 274.407 25.242 275.289 25.578L276.087 20.832C275.079 20.538 274.071 20.37 273.147 20.37C270.585 20.37 268.359 21.504 267.393 24.024V20.664H262.437ZM291.944 26.502L294.59 23.184C292.574 21.168 289.592 20.16 286.694 20.16C282.452 20.16 278.672 22.344 278.672 26.88C278.672 31.878 283.334 32.76 286.778 33.432C289.382 33.936 290.726 34.398 290.726 35.826C290.726 37.17 289.382 37.842 287.534 37.842C285.182 37.842 282.116 36.876 280.31 34.692L277.496 38.22C279.89 40.824 283.502 42.252 287.072 42.252C291.986 42.252 295.766 39.606 295.766 35.238C295.766 30.618 291.482 29.778 288.08 29.106C285.182 28.56 283.67 28.182 283.67 26.628C283.67 25.242 284.888 24.444 286.736 24.444C288.374 24.444 290.516 25.074 291.944 26.502ZM319.033 32.928V30.744C319.033 23.814 315.379 20.16 309.583 20.16C302.821 20.16 298.747 25.158 298.747 31.458C298.747 37.842 302.947 42.252 309.499 42.252C313.279 42.252 316.177 40.782 318.445 38.136L315.757 35.07C314.455 36.708 312.565 37.842 309.919 37.842C306.601 37.842 304.459 36.204 303.871 32.928H319.033ZM303.829 29.19C304.333 26.166 306.223 24.402 309.331 24.402C312.481 24.402 313.951 26.208 313.993 29.19H303.829ZM344.426 35.322V20.664H339.47V23.856C338.294 21.546 335.774 20.16 332.33 20.16C325.82 20.16 322.208 25.242 322.208 31.248C322.208 37.296 325.946 42.252 332.288 42.252C335.858 42.252 338.63 40.782 340.1 38.094C340.52 40.782 342.788 42.252 345.35 42.252C346.694 42.252 348.164 41.832 349.466 40.95L348.29 37.212C347.744 37.548 347.198 37.674 346.652 37.674C345.476 37.674 344.426 37.002 344.426 35.322ZM327.29 31.206C327.29 27.594 329.39 24.654 333.212 24.654C336.866 24.654 339.344 27.342 339.344 31.206C339.344 35.112 336.866 37.758 333.254 37.758C329.684 37.758 327.29 35.07 327.29 31.206ZM365.813 26.502L368.459 23.184C366.443 21.168 363.461 20.16 360.563 20.16C356.321 20.16 352.541 22.344 352.541 26.88C352.541 31.878 357.203 32.76 360.647 33.432C363.251 33.936 364.595 34.398 364.595 35.826C364.595 37.17 363.251 37.842 361.403 37.842C359.051 37.842 355.985 36.876 354.179 34.692L351.365 38.22C353.759 40.824 357.371 42.252 360.941 42.252C365.855 42.252 369.635 39.606 369.635 35.238C369.635 30.618 365.351 29.778 361.949 29.106C359.051 28.56 357.539 28.182 357.539 26.628C357.539 25.242 358.757 24.444 360.605 24.444C362.243 24.444 364.385 25.074 365.813 26.502ZM403.32 17.556V12.6H384.714V42H403.656V37.044H389.922V29.736H401.262V24.78H389.922V17.556H403.32ZM429.493 42V12.6H424.411V23.604C423.235 21.504 420.673 20.16 417.397 20.16C410.887 20.16 407.275 25.284 407.275 31.248C407.275 37.212 410.887 42.252 417.355 42.252C420.631 42.252 423.361 40.908 424.663 38.682V42H429.493ZM412.357 31.206C412.357 27.594 414.499 24.654 418.279 24.654C421.933 24.654 424.411 27.342 424.411 31.206C424.411 35.07 421.933 37.758 418.279 37.758C414.751 37.758 412.357 35.07 412.357 31.206ZM454.011 20.664H448.929V31.836C448.929 35.49 446.787 37.716 443.805 37.716C441.369 37.716 439.857 36.246 439.857 33.18V20.664H434.775V34.23C434.775 39.732 438.135 42.252 442.419 42.252C445.821 42.252 447.753 40.656 449.055 38.514V42H454.011V20.664ZM478.538 36.876L475.136 34.398C473.918 36.456 471.818 37.674 469.592 37.674C465.812 37.674 463.502 34.734 463.502 31.122C463.502 27.51 465.56 24.696 469.34 24.696C471.482 24.696 473.12 25.62 474.338 27.426L477.95 24.444C475.934 21.63 472.994 20.16 469.34 20.16C462.704 20.16 458.462 25.158 458.462 31.332C458.462 37.338 462.284 42.252 469.13 42.252C473.162 42.252 476.396 40.278 478.538 36.876ZM503.116 35.322V20.664H498.16V23.856C496.984 21.546 494.464 20.16 491.02 20.16C484.51 20.16 480.898 25.242 480.898 31.248C480.898 37.296 484.636 42.252 490.978 42.252C494.548 42.252 497.32 40.782 498.79 38.094C499.21 40.782 501.478 42.252 504.04 42.252C505.384 42.252 506.854 41.832 508.156 40.95L506.98 37.212C506.434 37.548 505.888 37.674 505.342 37.674C504.166 37.674 503.116 37.002 503.116 35.322ZM485.98 31.206C485.98 27.594 488.08 24.654 491.902 24.654C495.556 24.654 498.034 27.342 498.034 31.206C498.034 35.112 495.556 37.758 491.944 37.758C488.374 37.758 485.98 35.07 485.98 31.206ZM508.185 20.664V25.2H512.511V35.028C512.511 39.648 515.619 42.252 519.735 42.252C521.751 42.252 523.809 41.622 525.741 40.362L524.397 36.666C523.305 37.338 522.087 37.674 521.079 37.674C519.147 37.674 517.593 36.582 517.593 34.188V25.2H523.935V20.664H517.593V15.204H512.511V20.664H508.185ZM532.224 10.878C530.208 10.878 528.78 12.306 528.78 14.196C528.78 16.044 530.208 17.472 532.224 17.472C534.24 17.472 535.626 16.044 535.626 14.196C535.626 12.306 534.24 10.878 532.224 10.878ZM529.662 42H534.744V20.664H529.662V42ZM550.512 20.16C544.17 20.16 539.55 24.864 539.55 31.206C539.55 37.548 544.17 42.252 550.512 42.252C556.854 42.252 561.474 37.548 561.474 31.206C561.474 24.864 556.854 20.16 550.512 20.16ZM544.632 31.206C544.632 27.384 546.984 24.696 550.512 24.696C554.082 24.696 556.434 27.384 556.434 31.206C556.434 35.028 554.082 37.674 550.512 37.674C546.984 37.674 544.632 35.028 544.632 31.206ZM565.912 20.664V42H570.994V30.576C570.994 26.712 573.346 24.654 576.16 24.654C578.68 24.654 580.276 26.208 580.276 29.106V42H585.358V27.972C585.358 22.848 582.208 20.16 577.756 20.16C574.228 20.16 572.17 21.756 570.868 23.898V20.664H565.912ZM315.181 67.6H304.303V97H309.511V85.66H314.635C320.809 85.66 324.253 81.124 324.253 76.336C324.253 71.884 321.355 67.6 315.181 67.6ZM309.511 80.914V72.388H314.719C317.575 72.388 319.045 74.236 319.045 76.462C319.045 78.856 317.491 80.914 314.425 80.914H309.511ZM347.514 75.664H342.432V86.836C342.432 90.49 340.29 92.716 337.308 92.716C334.872 92.716 333.36 91.246 333.36 88.18V75.664H328.278V89.23C328.278 94.732 331.638 97.252 335.922 97.252C339.324 97.252 341.256 95.656 342.558 93.514V97H347.514V75.664ZM353.225 75.664V97H358.307V85.576C358.307 81.712 360.659 79.654 363.473 79.654C365.993 79.654 367.589 81.208 367.589 84.106V97H372.671V82.972C372.671 77.848 369.521 75.16 365.069 75.16C361.541 75.16 359.483 76.756 358.181 78.898V75.664H353.225ZM397.394 87.928V85.744C397.394 78.814 393.74 75.16 387.944 75.16C381.182 75.16 377.108 80.158 377.108 86.458C377.108 92.842 381.308 97.252 387.86 97.252C391.64 97.252 394.538 95.782 396.806 93.136L394.118 90.07C392.816 91.708 390.926 92.842 388.28 92.842C384.962 92.842 382.82 91.204 382.232 87.928H397.394ZM382.19 84.19C382.694 81.166 384.584 79.402 387.692 79.402C390.842 79.402 392.312 81.208 392.354 84.19H382.19Z" fill="white"/>
</svg>
